<svg xmlns="http://www.w3.org/2000/svg" viewBox="0 0 699.97 553.02"><defs><style>.cls-1{fill:#fff;}</style></defs><title>Asset 10logo</title><g id="Layer_2" data-name="Layer 2"><g id="Layer_1-2" data-name="Layer 1"><path class="cls-1" d="M50.27,182.75V370.27a6.78,6.78,0,0,1-6.78,6.79H42.9a6.78,6.78,0,0,1-4.55-1.75C17.44,356.42,0,325.62,0,277c0-49,17.77-80.21,38.93-99.3A6.79,6.79,0,0,1,43.49,176h0A6.78,6.78,0,0,1,50.27,182.75Z"/><path class="cls-1" d="M122.45,162.78V390.24a10.14,10.14,0,0,1-8.28,10,99.47,99.47,0,0,1-16.86,2,71.37,71.37,0,0,1-17.54-2.61,10.15,10.15,0,0,1-7.6-9.81V163.33a10.18,10.18,0,0,1,7.53-9.8,70,70,0,0,1,17.61-2.71,99.47,99.47,0,0,1,16.86,2A10.14,10.14,0,0,1,122.45,162.78Z"/><rect class="cls-1" x="145.58" y="150.82" width="50.27" height="251.37" rx="18" ry="18"/><path class="cls-1" d="M497.28,277c0,48.6-17.44,79.41-38.35,98.3a6.76,6.76,0,0,1-4.55,1.75h-.59a6.79,6.79,0,0,1-6.79-6.79V182.75a6.79,6.79,0,0,1,6.79-6.79h0a6.8,6.8,0,0,1,4.56,1.75C479.51,196.8,497.28,228,497.28,277Z"/><rect class="cls-1" x="620.61" y="123.19" width="50.27" height="84.42" rx="9.16" ry="9.16" transform="translate(480.34 811.15) rotate(-90)"/><rect class="cls-1" x="223.8" y="234.04" width="50.27" height="85.94" rx="18" ry="18" transform="translate(-28.08 525.95) rotate(-90)"/><rect class="cls-1" x="301.43" y="150.82" width="50.27" height="402.2" rx="18" ry="18"/><path class="cls-1" d="M425.1,163.49V389.62a10.36,10.36,0,0,1-7.74,10A71.31,71.31,0,0,1,400,402.2a98.79,98.79,0,0,1-16.69-2,10.34,10.34,0,0,1-8.45-10.17V163a10.34,10.34,0,0,1,8.45-10.17,98.79,98.79,0,0,1,16.69-2,69.84,69.84,0,0,1,17.46,2.67A10.36,10.36,0,0,1,425.1,163.49Z"/><path class="cls-1" d="M700,368.43V397a11.23,11.23,0,0,1-11.23,11.23H638.85a96.56,96.56,0,0,1-96.56-96.57V11.23A11.22,11.22,0,0,1,553.51,0h28.58a11.23,11.23,0,0,1,11.23,11.23V305.16a52,52,0,0,0,52,52h43.38A11.23,11.23,0,0,1,700,368.43Z"/></g></g></svg>